<svg width="35" height="35" viewBox="0 0 35 35" fill="none" xmlns="http://www.w3.org/2000/svg">
<circle cx="17.5" cy="17.5" r="17.5" fill="url(#paint0_linear_110_83)"/>
<path fill-rule="evenodd" clip-rule="evenodd" d="M14.1678 10.1695C14.2209 10.1158 14.2839 10.0731 14.3533 10.0441C14.4228 10.015 14.4972 10 14.5723 10C14.6474 10 14.7219 10.015 14.7913 10.0441C14.8607 10.0731 14.9237 10.1158 14.9768 10.1695L21.8322 17.0917C21.8854 17.1453 21.9276 17.209 21.9564 17.2791C21.9852 17.3491 22 17.4243 22 17.5002C22 17.576 21.9852 17.6512 21.9564 17.7212C21.9276 17.7913 21.8854 17.855 21.8322 17.9086L14.9768 24.8308C14.8695 24.9391 14.724 25 14.5723 25C14.4206 25 14.2751 24.9391 14.1678 24.8308C14.0606 24.7225 14.0003 24.5756 14.0003 24.4224C14.0003 24.2692 14.0606 24.1223 14.1678 24.014L20.6199 17.5002L14.1678 10.9863C14.1146 10.9327 14.0724 10.8691 14.0436 10.799C14.0148 10.7289 14 10.6538 14 10.5779C14 10.502 14.0148 10.4269 14.0436 10.3568C14.0724 10.2867 14.1146 10.2231 14.1678 10.1695Z" fill="#FA5C11"/>
<defs>
<linearGradient id="paint0_linear_110_83" x1="-2.90816" y1="-3.9537" x2="34.9923" y2="35" gradientUnits="userSpaceOnUse">
<stop offset="0.275" stop-color="#060606"/>
<stop offset="0.720346" stop-color="#1A1818"/>
</linearGradient>
</defs>
</svg>
