<svg width="14" height="17" viewBox="0 0 14 17" fill="none" xmlns="http://www.w3.org/2000/svg">
<path d="M8.608 7.84C8.472 7.808 8.284 7.776 8.044 7.744C7.804 7.704 7.56 7.684 7.312 7.684C6.952 7.684 6.656 7.756 6.424 7.9C6.2 8.044 6.024 8.232 5.896 8.464C5.768 8.688 5.68 8.94 5.632 9.22C5.584 9.492 5.56 9.76 5.56 10.024C5.56 10.432 5.612 10.784 5.716 11.08C5.82 11.368 5.956 11.604 6.124 11.788C6.3 11.972 6.5 12.108 6.724 12.196C6.948 12.276 7.184 12.316 7.432 12.316C7.6 12.316 7.76 12.308 7.912 12.292C8.072 12.268 8.216 12.244 8.344 12.22C8.48 12.188 8.608 12.152 8.728 12.112L8.92 12.916C8.752 12.964 8.596 13.004 8.452 13.036C8.308 13.068 8.136 13.096 7.936 13.12C7.744 13.144 7.536 13.156 7.312 13.156C6.872 13.156 6.48 13.1 6.136 12.988C5.792 12.876 5.5 12.696 5.26 12.448C5.028 12.2 4.848 11.876 4.72 11.476C4.6 11.076 4.54 10.588 4.54 10.012C4.54 9.452 4.616 8.972 4.768 8.572C4.928 8.164 5.136 7.836 5.392 7.588C5.648 7.332 5.94 7.144 6.268 7.024C6.604 6.904 6.952 6.844 7.312 6.844C7.504 6.844 7.688 6.856 7.864 6.88C8.048 6.896 8.208 6.916 8.344 6.94C8.504 6.972 8.656 7.004 8.8 7.036L8.608 7.84Z" fill="white"/>
<circle cx="7" cy="10" r="6.5" stroke="white"/>
</svg>
