<svg width="25" height="25" viewBox="0 0 25 25" fill="none" xmlns="http://www.w3.org/2000/svg">
<circle cx="12.5" cy="12.5" r="12.5" fill="url(#paint0_linear_250_8)"/>
<path d="M20 13.0429C20 9.15311 16.8661 6 13.0009 6C9.13386 6.00087 6 9.15311 6 13.0437C6 16.5582 8.55993 19.4716 11.9055 20V15.0787H10.1295V13.0437H11.9073V11.4908C11.9073 9.72616 12.9528 8.75153 14.5512 8.75153C15.3176 8.75153 16.1181 8.88889 16.1181 8.88889V10.6212H15.2353C14.3666 10.6212 14.0954 11.1645 14.0954 11.7218V13.0429H16.0359L15.7262 15.0779H14.0945V19.9991C17.4401 19.4707 20 16.5573 20 13.0429Z" fill="black"/>
<defs>
<linearGradient id="paint0_linear_250_8" x1="25" y1="12.8049" x2="-1.52304e-06" y2="12.8049" gradientUnits="userSpaceOnUse">
<stop stop-color="#FA5608"/>
<stop offset="1" stop-color="#F9AD89"/>
</linearGradient>
</defs>
</svg>
