<svg width="45" height="47" viewBox="0 0 45 47" fill="none" xmlns="http://www.w3.org/2000/svg">
<path d="M41.8425 3L39.6846 5.1579" stroke="black" stroke-width="4.63542" stroke-linecap="round" stroke-linejoin="round"/>
<path d="M3 3L5.1579 5.1579" stroke="black" stroke-width="4.63542" stroke-linecap="round" stroke-linejoin="round"/>
<path d="M41.8425 33.2106L39.6846 31.0527" stroke="black" stroke-width="4.63542" stroke-linecap="round" stroke-linejoin="round"/>
<path d="M3 33.2106L5.1579 31.0527" stroke="black" stroke-width="4.63542" stroke-linecap="round" stroke-linejoin="round"/>
<path d="M15.9473 37.5264H28.8946" stroke="black" stroke-width="4.63542" stroke-linecap="round" stroke-linejoin="round"/>
<path d="M18.1045 44H26.7361" stroke="black" stroke-width="4.63542" stroke-linecap="round" stroke-linejoin="round"/>
<path d="M22.4207 5.1582C13.7889 5.1582 9.3699 9.36673 9.47346 15.9477C9.52393 19.1562 10.5521 21.3424 12.7103 23.5003C14.8685 25.6582 15.9475 26.7372 15.9471 31.053H28.8944C28.8948 26.7374 29.9738 25.6582 32.131 23.5005C34.2887 21.3426 35.3178 19.1562 35.3681 15.9477C35.4717 9.36673 31.0527 5.1582 22.4207 5.1582Z" stroke="black" stroke-width="4.63542" stroke-linecap="round" stroke-linejoin="round"/>
</svg>
