<svg width="25" height="25" viewBox="0 0 25 25" fill="none" xmlns="http://www.w3.org/2000/svg">
<path fill-rule="evenodd" clip-rule="evenodd" d="M4.84375 17.32C4.91652 17.2206 5.01088 17.14 5.11936 17.0845C5.22785 17.0289 5.34747 17 5.46875 17H9.375C9.5822 17 9.78091 17.0843 9.92743 17.2343C10.0739 17.3843 10.1562 17.5878 10.1562 17.8C10.1562 18.0122 10.0739 18.2157 9.92743 18.3657C9.78091 18.5157 9.5822 18.6 9.375 18.6H5.85938L2.34375 23.4H22.6562L19.1406 18.6H15.625C15.4178 18.6 15.2191 18.5157 15.0726 18.3657C14.9261 18.2157 14.8438 18.0122 14.8438 17.8C14.8438 17.5878 14.9261 17.3843 15.0726 17.2343C15.2191 17.0843 15.4178 17 15.625 17H19.5312C19.6525 17 19.7722 17.0289 19.8806 17.0845C19.9891 17.14 20.0835 17.2206 20.1562 17.32L24.8438 23.72C24.9308 23.8389 24.9838 23.9802 24.9968 24.1282C25.0099 24.2761 24.9824 24.4249 24.9175 24.5578C24.8526 24.6907 24.7529 24.8024 24.6295 24.8805C24.5061 24.9586 24.3638 25 24.2188 25H0.78125C0.636163 25 0.493942 24.9586 0.370523 24.8805C0.247104 24.8024 0.147364 24.6907 0.0824791 24.5578C0.0175941 24.4249 -0.00987251 24.2761 0.00315716 24.1282C0.0161868 23.9802 0.0691979 23.8389 0.15625 23.72L4.84375 17.32Z" fill="url(#paint0_linear_316_7)"/>
<path fill-rule="evenodd" clip-rule="evenodd" d="M6 6.2853C6.00012 5.07562 6.36117 3.89167 7.03983 2.87551C7.71849 1.85935 8.68593 1.05414 9.82607 0.556514C10.9662 0.0588843 12.2306 -0.110032 13.4676 0.0700342C14.7045 0.2501 15.8614 0.771499 16.7996 1.57167C17.7377 2.37184 18.4171 3.41678 18.7564 4.58112C19.0956 5.74546 19.0803 6.97974 18.7121 8.13584C18.344 9.29194 17.6387 10.3208 16.6809 11.0989C15.7232 11.8769 14.5536 12.3713 13.3125 12.5225V21.2143C13.3125 21.4227 13.2269 21.6225 13.0745 21.7699C12.9222 21.9172 12.7155 22 12.5 22C12.2845 22 12.0778 21.9172 11.9255 21.7699C11.7731 21.6225 11.6875 21.4227 11.6875 21.2143V12.524C10.1161 12.3326 8.67099 11.5928 7.62372 10.4438C6.57646 9.29472 5.99906 7.81698 6 6.2853Z" fill="url(#paint1_linear_316_7)"/>
<defs>
<linearGradient id="paint0_linear_316_7" x1="25" y1="21.0976" x2="-1.52304e-06" y2="21.0976" gradientUnits="userSpaceOnUse">
<stop stop-color="#FA5608"/>
<stop offset="1" stop-color="#F9AD89"/>
</linearGradient>
<linearGradient id="paint1_linear_316_7" x1="19" y1="11.2683" x2="6" y2="11.2683" gradientUnits="userSpaceOnUse">
<stop stop-color="#FA5608"/>
<stop offset="1" stop-color="#F9AD89"/>
</linearGradient>
</defs>
</svg>
