<svg width="37" height="17" viewBox="0 0 37 17" fill="none" xmlns="http://www.w3.org/2000/svg">
<path d="M0 1.15625C0 0.517671 0.517671 0 1.15625 0H35.8438C36.4823 0 37 0.517671 37 1.15625C37 1.79483 36.4823 2.3125 35.8438 2.3125H1.15625C0.517671 2.3125 0 1.79483 0 1.15625Z" fill="#FA5608"/>
<path d="M0 8.09375C0 7.45517 0.517671 6.9375 1.15625 6.9375H35.8438C36.4823 6.9375 37 7.45517 37 8.09375C37 8.73233 36.4823 9.25 35.8438 9.25H1.15625C0.517671 9.25 0 8.73233 0 8.09375Z" fill="#FA5608"/>
<path d="M0 15.0312C0 14.3927 0.517671 13.875 1.15625 13.875H35.8438C36.4823 13.875 37 14.3927 37 15.0312C37 15.6698 36.4823 16.1875 35.8438 16.1875H1.15625C0.517671 16.1875 0 15.6698 0 15.0312Z" fill="#FA5608"/>
</svg>
