<svg width="25" height="25" viewBox="0 0 25 25" fill="none" xmlns="http://www.w3.org/2000/svg">
<circle cx="12.5" cy="12.5" r="12.5" fill="url(#paint0_linear_250_7)"/>
<g clip-path="url(#clip0_250_7)">
<path d="M17.9009 8.0353C17.2592 7.38736 16.4948 6.87369 15.6525 6.52426C14.8102 6.17482 13.9067 5.99662 12.9947 6.00005C9.17362 6.00005 6.0595 9.1133 6.056 12.9353C6.056 14.1594 6.37625 15.3503 6.98087 16.4047L6 20L9.6785 19.0358C10.6957 19.5908 11.836 19.8811 12.9947 19.8802H12.9982C16.8202 19.8802 19.9335 16.7669 19.937 12.9414C19.9378 12.0297 19.7582 11.1269 19.4086 10.2849C19.059 9.44287 18.5472 8.67833 17.9009 8.0353ZM12.9947 18.7059C11.9615 18.7051 10.9474 18.4271 10.0582 17.9009L9.84825 17.7749L7.666 18.3472L8.24875 16.2183L8.11225 15.9987C7.53458 15.0802 7.22907 14.0168 7.23112 12.9318C7.23112 9.75905 9.8185 7.1708 12.9982 7.1708C13.7558 7.16944 14.5061 7.31804 15.2059 7.60803C15.9057 7.89802 16.5412 8.32366 17.0757 8.86042C17.612 9.39518 18.0372 10.0308 18.3267 10.7306C18.6163 11.4304 18.7645 12.1806 18.7627 12.9379C18.7592 16.122 16.1719 18.7059 12.9947 18.7059ZM16.1579 14.3887C15.9855 14.302 15.1341 13.8829 14.974 13.8234C14.8147 13.7665 14.6984 13.7368 14.5846 13.91C14.4682 14.0824 14.1357 14.4753 14.036 14.5882C13.9362 14.7045 13.833 14.7177 13.6597 14.6319C13.4874 14.5444 12.9282 14.3624 12.2667 13.77C11.7505 13.3107 11.4049 12.7419 11.3016 12.5695C11.2019 12.3963 11.292 12.3035 11.3786 12.2169C11.4547 12.1399 11.551 12.0139 11.6376 11.9142C11.7251 11.8144 11.754 11.7409 11.8109 11.6254C11.8677 11.5082 11.8406 11.4084 11.7977 11.3218C11.754 11.2352 11.4084 10.3803 11.2622 10.0355C11.1222 9.69517 10.9796 9.74242 10.8729 9.73805C10.7731 9.73192 10.6567 9.73192 10.5404 9.73192C10.4525 9.73416 10.366 9.75451 10.2864 9.7917C10.2067 9.82889 10.1356 9.88211 10.0775 9.94805C9.91825 10.1213 9.47287 10.5404 9.47287 11.3953C9.47287 12.2502 10.0941 13.0718 10.1816 13.1882C10.2674 13.3045 11.4014 15.0537 13.1417 15.8062C13.553 15.9855 13.8767 16.0914 14.1296 16.1719C14.5452 16.3049 14.9206 16.2848 15.2199 16.2419C15.5524 16.1912 16.2445 15.8219 16.3906 15.4168C16.5341 15.0108 16.5341 14.6643 16.4904 14.5917C16.4475 14.5182 16.3311 14.4753 16.1579 14.3887Z" fill="black"/>
</g>
<defs>
<linearGradient id="paint0_linear_250_7" x1="25" y1="12.8049" x2="-1.52304e-06" y2="12.8049" gradientUnits="userSpaceOnUse">
<stop stop-color="#FA5608"/>
<stop offset="1" stop-color="#F9AD89"/>
</linearGradient>
<clipPath id="clip0_250_7">
<rect width="14" height="14" fill="white" transform="translate(6 6)"/>
</clipPath>
</defs>
</svg>
